<?xml version="1.0" encoding="utf-8"?><svg viewBox="0 0 159 38" xmlns="http://www.w3.org/2000/svg" xmlns:xlink="http://www.w3.org/1999/xlink"><style>:root>svg{display:none}:root>svg:target{display:block}</style><svg fill="none" viewBox="0 0 34 34" id="arrow-top" xmlns="http://www.w3.org/2000/svg"><path d="M19.08 17v16.67h-4.16V17H.33L17 .33 33.67 17H19.08z" fill="#fff"/></svg><svg fill="none" viewBox="0 0 11 20" id="facebook" xmlns="http://www.w3.org/2000/svg"><path d="M7 11.5h2.5l1-4H7v-2c0-1.03 0-2 2-2h1.5V.14C10.174.097 8.943 0 7.643 0 4.928 0 3 1.657 3 4.7v2.8H0v4h3V20h4v-8.5z" fill="#FF5300"/></svg><svg fill="none" viewBox="0 0 159 38" id="footer-logo" xmlns="http://www.w3.org/2000/svg"><path d="M10.76 3.22c4.03 0 7.16 1.12 9.37 3.36 2.22 2.24 3.32 5.42 3.32 9.53 0 4.11-1.1 7.3-3.32 9.53C17.92 27.88 14.8 29 10.76 29H.8V3.22h9.96zm-.28 21.48c2.45 0 4.29-.73 5.51-2.18 1.25-1.49 1.88-3.62 1.88-6.41s-.63-4.9-1.88-6.37c-1.22-1.48-3.06-2.22-5.5-2.22h-4.3V24.7h4.3zM30.91 6.66c-2.22 0-3.32-.95-3.32-2.85 0-1.93 1.1-2.9 3.32-2.9 2.21 0 3.32.97 3.32 2.9 0 1.9-1.11 2.85-3.32 2.85zm2.65 2.81V29h-5.35V9.47h5.35zm17.28 15.86c2.1 0 3.73.45 4.88 1.37a4.61 4.61 0 011.72 3.82c0 1.51-.43 2.78-1.3 3.8a7.9 7.9 0 01-3.62 2.3c-1.54.52-3.32.78-5.36.78-3.36 0-5.82-.47-7.38-1.4-1.53-.95-2.3-2.17-2.3-3.68 0-.89.27-1.67.82-2.34a4.85 4.85 0 012.73-1.37c-1.74-.65-2.62-1.88-2.62-3.67 0-.89.26-1.67.79-2.35a4.94 4.94 0 012.22-1.52 5.71 5.71 0 01-3.08-5.35c0-2.06.8-3.67 2.38-4.84 1.59-1.2 3.76-1.8 6.52-1.8 1.56 0 2.97.2 4.22.62.18-1.35.73-2.5 1.64-3.43a4.86 4.86 0 013.71-1.45h.43l.63 3.83c-.21-.03-.45-.04-.7-.04-1 0-1.79.2-2.39.59-.6.36-.98.9-1.13 1.6a5.67 5.67 0 012.5 4.92c0 2.03-.8 3.65-2.42 4.84-1.6 1.17-3.75 1.76-6.49 1.76-1.2 0-2.29-.1-3.28-.31-.6.15-1.03.39-1.29.7a1.5 1.5 0 00-.35.98c0 1.1.83 1.64 2.5 1.64h6.02zm-3.6-12.9c-1.04 0-1.9.3-2.58.87a2.95 2.95 0 00-1.01 2.38c0 1.02.34 1.82 1.01 2.42.68.58 1.54.86 2.58.86a3.8 3.8 0 002.54-.86c.68-.6 1.02-1.4 1.02-2.42s-.34-1.8-1.02-2.38a3.8 3.8 0 00-2.54-.86zm-.04 21.3c2 0 3.5-.25 4.46-.75.99-.46 1.48-1.04 1.48-1.71 0-.5-.2-.9-.59-1.22-.39-.28-1.09-.43-2.1-.43h-6.6c-.63 0-1.15.16-1.57.47-.39.34-.58.77-.58 1.3 0 .72.48 1.3 1.44 1.71.99.42 2.34.63 4.06.63zM63.37 6.66c-2.22 0-3.32-.95-3.32-2.85 0-1.93 1.1-2.9 3.32-2.9 2.21 0 3.32.97 3.32 2.9 0 1.9-1.1 2.85-3.32 2.85zm2.65 2.81V29h-5.35V9.47h5.35zm14.74 19.92c-3.08 0-5.54-.88-7.38-2.66-1.85-1.8-2.78-4.3-2.78-7.5 0-2.13.42-3.95 1.25-5.46a8.6 8.6 0 013.48-3.48c1.5-.8 3.23-1.21 5.15-1.21 1.98 0 3.66.4 5.04 1.21a7.9 7.9 0 013.17 3.24 9.65 9.65 0 011.1 4.65 26.85 26.85 0 01-.17 2.73H75.84c.2 1.51.73 2.65 1.56 3.4.86.73 1.96 1.1 3.32 1.1 1.14 0 2.07-.22 2.77-.67a4.5 4.5 0 001.64-1.83l4.26 1.64a7.08 7.08 0 01-3.28 3.6 11.2 11.2 0 01-5.35 1.24zm-.31-16.37c-2.53 0-4.05 1.4-4.57 4.18h8.78a4.92 4.92 0 00-1.32-3.08 3.83 3.83 0 00-2.9-1.1z" fill="#FF5300"/><path d="M94.32 29V9.47h4.8l.2 3.67a6.44 6.44 0 012.61-3.04 7.9 7.9 0 014.02-1.02c2.04 0 3.72.6 5.04 1.8 1.33 1.17 2 2.94 2 5.3V29h-5.35V17.71c0-1.66-.34-2.81-1.02-3.44a3.38 3.38 0 00-2.5-.97c-.73 0-1.45.18-2.15.54a4 4 0 00-1.68 1.68 6.65 6.65 0 00-.62 3.13V29h-5.35zm33.05-19.92c2.6 0 4.62.56 6.05 1.68a7.88 7.88 0 012.89 4.06l-5 1.8c-.52-2.37-1.8-3.56-3.87-3.56a4.2 4.2 0 00-3.47 1.57c-.81 1.04-1.21 2.59-1.21 4.64 0 2.09.41 3.64 1.25 4.65a4.37 4.37 0 003.47 1.49c2.27 0 3.62-1.16 4.06-3.48l4.85 1.56a7.31 7.31 0 01-2.97 4.26c-1.51 1.1-3.48 1.64-5.9 1.64-2.03 0-3.81-.4-5.35-1.21a8.53 8.53 0 01-3.52-3.48 11.17 11.17 0 01-1.25-5.46c0-2.14.42-3.96 1.25-5.47a8.85 8.85 0 013.52-3.48c1.51-.8 3.24-1.21 5.2-1.21zm31.04.39l-7.9 20.74a15.88 15.88 0 01-2.1 4.22 6.42 6.42 0 01-2.66 2.26c-.99.47-2.17.7-3.55.7-1.02 0-1.95-.1-2.81-.34a7.64 7.64 0 01-2.2-.98l1.14-3.87c.91.73 2.06 1.1 3.44 1.1.75 0 1.4-.16 1.91-.47.52-.31.97-.94 1.33-1.88l.67-1.68-2.15-5.07-5.98-14.73h5.94l3.7 11.72 1.02 3.9 1.22-4.14 3.55-11.48h5.43z" fill="#FFF7F4"/></svg><svg fill="none" viewBox="0 0 20 20" id="instagram" xmlns="http://www.w3.org/2000/svg"><path d="M10 0c2.717 0 3.056.01 4.122.06 1.065.05 1.79.217 2.428.465.66.254 1.216.598 1.772 1.153.509.5.902 1.105 1.153 1.772.247.637.415 1.363.465 2.428.047 1.066.06 1.405.06 4.122 0 2.717-.01 3.056-.06 4.122-.05 1.065-.218 1.79-.465 2.428a4.883 4.883 0 01-1.153 1.772c-.5.508-1.105.902-1.772 1.153-.637.247-1.363.415-2.428.465-1.066.047-1.405.06-4.122.06-2.717 0-3.056-.01-4.122-.06-1.065-.05-1.79-.218-2.428-.465a4.89 4.89 0 01-1.772-1.153A4.904 4.904 0 01.525 16.55C.277 15.913.11 15.187.06 14.122.013 13.056 0 12.717 0 10c0-2.717.01-3.056.06-4.122.05-1.066.217-1.79.465-2.428a4.88 4.88 0 011.153-1.772A4.897 4.897 0 013.45.525C4.088.277 4.812.11 5.878.06 6.944.013 7.283 0 10 0zm0 5a5 5 0 100 10 5 5 0 000-10zm6.5-.25a1.25 1.25 0 10-2.5 0 1.25 1.25 0 002.5 0zM10 7a3 3 0 110 6 3 3 0 010-6z" fill="#FF5300"/></svg><svg fill="none" viewBox="0 0 21 21" id="newsletter" xmlns="http://www.w3.org/2000/svg"><path d="M.95 7.31c-.53-.17-.53-.45 0-.63L20.06.32c.52-.18.83.12.68.64l-5.46 19.08c-.15.53-.45.55-.68.05L11 12l6-8-8 6L.95 7.31z" fill="#fff"/></svg><svg fill="none" viewBox="0 0 20 20" id="skype" xmlns="http://www.w3.org/2000/svg"><path d="M11.31 18.4A8.5 8.5 0 011.6 8.69 5.25 5.25 0 018.69 1.6a8.5 8.5 0 019.71 9.71 5.25 5.25 0 01-7.09 7.09zm-1.258-3.244h-.04c2.872 0 4.303-1.386 4.303-3.243 0-1.198-.551-2.471-2.726-2.958l-1.983-.44c-.755-.172-1.622-.4-1.622-1.115s.62-1.213 1.724-1.213c2.23 0 2.027 1.528 3.131 1.528.576 0 1.093-.342 1.093-.93 0-1.37-2.197-2.4-4.056-2.4-2.021 0-4.173.859-4.173 3.144 0 1.098.394 2.27 2.56 2.813l2.689.671c.816.202 1.018.659 1.018 1.072 0 .687-.684 1.358-1.918 1.358-2.417 0-2.078-1.857-3.374-1.857-.58 0-1.003.398-1.003.971 0 1.114 1.352 2.598 4.377 2.598v.001z" fill="#FF5300"/></svg><svg fill="none" viewBox="0 0 22 18" id="twitter" xmlns="http://www.w3.org/2000/svg"><path d="M21.162 2.656a8.383 8.383 0 01-2.402.658A4.196 4.196 0 0020.6 1c-.82.488-1.719.83-2.656 1.015a4.182 4.182 0 00-7.126 3.814 11.874 11.874 0 01-8.62-4.37 4.168 4.168 0 00-.566 2.103c0 1.45.738 2.731 1.86 3.481a4.168 4.168 0 01-1.894-.523v.052a4.185 4.185 0 003.355 4.101 4.21 4.21 0 01-1.89.072A4.185 4.185 0 006.97 13.65a8.395 8.395 0 01-6.191 1.732 11.83 11.83 0 006.41 1.88c7.693 0 11.9-6.373 11.9-11.9 0-.18-.005-.362-.013-.54a8.495 8.495 0 002.087-2.165l-.001-.001z" fill="#FF5300"/></svg></svg>