<svg width="159" height="38" fill="none" xmlns="http://www.w3.org/2000/svg"><path d="M10.76 3.22c4.03 0 7.16 1.12 9.37 3.36 2.22 2.24 3.32 5.42 3.32 9.53 0 4.11-1.1 7.3-3.32 9.53C17.92 27.88 14.8 29 10.76 29H.8V3.22h9.96zm-.28 21.48c2.45 0 4.29-.73 5.51-2.18 1.25-1.49 1.88-3.62 1.88-6.41s-.63-4.9-1.88-6.37c-1.22-1.48-3.06-2.22-5.5-2.22h-4.3V24.7h4.3zM30.91 6.66c-2.22 0-3.32-.95-3.32-2.85 0-1.93 1.1-2.9 3.32-2.9 2.21 0 3.32.97 3.32 2.9 0 1.9-1.11 2.85-3.32 2.85zm2.65 2.81V29h-5.35V9.47h5.35zm17.28 15.86c2.1 0 3.73.45 4.88 1.37a4.61 4.61 0 011.72 3.82c0 1.51-.43 2.78-1.3 3.8a7.9 7.9 0 01-3.62 2.3c-1.54.52-3.32.78-5.36.78-3.36 0-5.82-.47-7.38-1.4-1.53-.95-2.3-2.17-2.3-3.68 0-.89.27-1.67.82-2.34a4.85 4.85 0 012.73-1.37c-1.74-.65-2.62-1.88-2.62-3.67 0-.89.26-1.67.79-2.35a4.94 4.94 0 012.22-1.52 5.71 5.71 0 01-3.08-5.35c0-2.06.8-3.67 2.38-4.84 1.59-1.2 3.76-1.8 6.52-1.8 1.56 0 2.97.2 4.22.62.18-1.35.73-2.5 1.64-3.43a4.86 4.86 0 013.71-1.45H57.24l.63 3.83c-.21-.03-.45-.04-.7-.04-1 0-1.79.2-2.39.59-.6.36-.98.9-1.13 1.6a5.67 5.67 0 012.5 4.92c0 2.03-.8 3.65-2.42 4.84-1.6 1.17-3.75 1.76-6.49 1.76-1.2 0-2.29-.1-3.28-.31-.6.15-1.03.39-1.29.7a1.5 1.5 0 00-.35.98c0 1.1.83 1.64 2.5 1.64h6.02zm-3.6-12.9c-1.04 0-1.9.3-2.58.87a2.95 2.95 0 00-1.01 2.38c0 1.02.34 1.82 1.01 2.42.68.58 1.54.86 2.58.86a3.8 3.8 0 002.54-.86c.68-.6 1.02-1.4 1.02-2.42s-.34-1.8-1.02-2.38a3.8 3.8 0 00-2.54-.86zm-.04 21.3c2 0 3.5-.25 4.46-.75.99-.46 1.48-1.04 1.48-1.71 0-.5-.2-.9-.59-1.22-.39-.28-1.09-.43-2.1-.43h-6.6c-.63 0-1.15.16-1.57.47-.39.34-.58.77-.58 1.3 0 .72.48 1.3 1.44 1.71.99.42 2.34.63 4.06.63zM63.37 6.66c-2.22 0-3.32-.95-3.32-2.85 0-1.93 1.1-2.9 3.32-2.9 2.21 0 3.32.97 3.32 2.9 0 1.9-1.1 2.85-3.32 2.85zm2.65 2.81V29h-5.35V9.47h5.35zm14.74 19.92c-3.08 0-5.54-.88-7.38-2.66-1.85-1.8-2.78-4.3-2.78-7.5 0-2.13.42-3.95 1.25-5.46a8.6 8.6 0 013.48-3.48c1.5-.8 3.23-1.21 5.15-1.21 1.98 0 3.66.4 5.04 1.21a7.9 7.9 0 013.17 3.24 9.65 9.65 0 011.1 4.65 26.85 26.85 0 01-.17 2.73H75.84c.2 1.51.73 2.65 1.56 3.4.86.73 1.96 1.1 3.32 1.1 1.14 0 2.07-.22 2.77-.67a4.5 4.5 0 001.64-1.83l4.26 1.64a7.08 7.08 0 01-3.28 3.6 11.2 11.2 0 01-5.35 1.24zm-.31-16.37c-2.53 0-4.05 1.4-4.57 4.18h8.78a4.92 4.92 0 00-1.32-3.08 3.83 3.83 0 00-2.9-1.1z" fill="#FF5300"/><path d="M94.32 29V9.47h4.8l.2 3.67a6.44 6.44 0 012.61-3.04 7.9 7.9 0 014.02-1.02c2.04 0 3.72.6 5.04 1.8 1.33 1.17 2 2.94 2 5.3V29h-5.35V17.71c0-1.66-.34-2.81-1.02-3.44a3.38 3.38 0 00-2.5-.97c-.73 0-1.45.18-2.15.54a4 4 0 00-1.68 1.68 6.65 6.65 0 00-.62 3.13V29h-5.35zm33.05-19.92c2.6 0 4.62.56 6.05 1.68a7.88 7.88 0 012.89 4.06l-5 1.8c-.52-2.37-1.8-3.56-3.87-3.56a4.2 4.2 0 00-3.47 1.57c-.81 1.04-1.21 2.59-1.21 4.64 0 2.09.41 3.64 1.25 4.65a4.37 4.37 0 003.47 1.49c2.27 0 3.62-1.16 4.06-3.48l4.85 1.56a7.31 7.31 0 01-2.97 4.26c-1.51 1.1-3.48 1.64-5.9 1.64-2.03 0-3.81-.4-5.35-1.21a8.53 8.53 0 01-3.52-3.48 11.17 11.17 0 01-1.25-5.46c0-2.14.42-3.96 1.25-5.47a8.85 8.85 0 013.52-3.48c1.51-.8 3.24-1.21 5.2-1.21zm31.04.39l-7.9 20.74a15.88 15.88 0 01-2.1 4.22 6.42 6.42 0 01-2.66 2.26c-.99.47-2.17.7-3.55.7-1.02 0-1.95-.1-2.81-.34a7.64 7.64 0 01-2.2-.98l1.14-3.87c.91.73 2.06 1.1 3.44 1.1.75 0 1.4-.16 1.91-.47.52-.31.97-.94 1.33-1.88l.67-1.68-2.15-5.07-5.98-14.73h5.94l3.7 11.72 1.02 3.9 1.22-4.14 3.55-11.48h5.43z" fill="#FFF7F4"/></svg>