<svg width="100" height="24" fill="none" xmlns="http://www.w3.org/2000/svg"><path d="M6.3 1.5c2.58 0 4.59.72 6.02 2.15 1.45 1.42 2.18 3.45 2.18 6.1 0 2.65-.73 4.7-2.18 6.13C10.9 17.29 8.88 18 6.3 18H.47V1.5H6.3zm0 14.22c1.75 0 3.08-.51 4-1.54.93-1.05 1.4-2.53 1.4-4.43s-.47-3.37-1.4-4.4c-.92-1.05-2.25-1.57-4-1.57H3.15v11.95H6.3zM19.34 3.4c-.58 0-1.03-.14-1.35-.42-.3-.3-.45-.72-.45-1.25 0-.54.15-.95.45-1.23.32-.28.77-.43 1.35-.43.57 0 1 .15 1.3.43.32.28.48.7.48 1.23s-.16.94-.48 1.25c-.3.28-.73.42-1.3.42zm1.33 2.1V18h-2.68V5.5h2.68zM31.9 16.05c1.27 0 2.25.28 2.95.85.7.55 1.05 1.32 1.05 2.3 0 .88-.27 1.63-.82 2.25-.55.63-1.3 1.1-2.25 1.43a9.7 9.7 0 01-3.23.5c-2.06 0-3.59-.32-4.57-.95-.97-.64-1.45-1.43-1.45-2.38 0-.57.17-1.07.5-1.53.33-.45.88-.75 1.65-.92-.47-.2-.83-.48-1.1-.83-.27-.36-.4-.83-.4-1.4 0-.54.16-1.03.47-1.44.32-.44.79-.76 1.4-.98a3.73 3.73 0 01-1.97-3.47c0-1.27.5-2.29 1.47-3.06a6.08 6.08 0 013.9-1.17c1.05 0 1.98.17 2.78.5.13-.83.5-1.52 1.1-2.05.6-.55 1.36-.83 2.27-.83h.2l.43 2.1a1.55 1.55 0 00-.3-.02c-1.43 0-2.23.52-2.4 1.58a3.73 3.73 0 011.32 2.94c0 1.29-.49 2.31-1.47 3.08a6.21 6.21 0 01-3.93 1.15c-.68 0-1.3-.06-1.87-.17-.45.11-.78.3-.98.54a1.2 1.2 0 00-.27.75c0 .82.6 1.23 1.77 1.23h3.75zm-2.4-8.93c-.76 0-1.4.22-1.92.66-.5.41-.75.98-.75 1.7 0 .71.25 1.29.75 1.72a2.9 2.9 0 001.92.65c.79 0 1.43-.22 1.93-.65.52-.43.77-1 .77-1.72s-.25-1.29-.77-1.7a2.83 2.83 0 00-1.93-.66zm.1 14.25c1.37 0 2.38-.18 3.03-.55.67-.36 1-.8 1-1.3 0-.38-.16-.69-.48-.92-.3-.23-.85-.35-1.65-.35h-4.02c-.48 0-.88.13-1.2.38-.3.25-.45.57-.45.97 0 .55.33.98 1 1.3.67.32 1.6.48 2.77.48zM39.7 3.4c-.58 0-1.03-.14-1.34-.42-.3-.3-.45-.72-.45-1.25 0-.54.15-.95.45-1.23.31-.28.76-.43 1.35-.43.56 0 1 .15 1.3.43.31.28.47.7.47 1.23s-.16.94-.47 1.25c-.3.28-.74.42-1.3.42zm1.33 2.1V18h-2.67V5.5h2.67z" fill="#FF5300"/><path d="M50.72 18.25a6.8 6.8 0 01-3.3-.77 5.54 5.54 0 01-2.2-2.23 7.24 7.24 0 01-.8-3.5c0-1.35.25-2.5.77-3.47a5.55 5.55 0 012.18-2.25c.93-.52 2-.78 3.2-.78 1.21 0 2.25.25 3.1.75.85.5 1.5 1.18 1.95 2.05.45.87.67 1.85.67 2.95a14.07 14.07 0 01-.1 1.55h-9.15c.12 1.17.5 2.06 1.13 2.67.65.6 1.48.9 2.5.9.83 0 1.5-.15 2.02-.47.52-.32.93-.76 1.23-1.33l2.12 1a4.7 4.7 0 01-2.07 2.16 6.6 6.6 0 01-3.25.77zm-.2-10.88a3.3 3.3 0 00-2.28.8c-.58.54-.96 1.31-1.12 2.33h6.57c-.07-1-.38-1.77-.95-2.3a3.06 3.06 0 00-2.22-.82zM59.67 18V5.5h2.37l.13 2.15a4 4 0 011.72-1.83 5.41 5.41 0 012.5-.57c.89 0 1.68.17 2.38.53.72.33 1.28.84 1.7 1.54.42.69.62 1.55.62 2.58V18h-2.67v-7.28c0-1.23-.26-2.08-.78-2.54a2.62 2.62 0 00-1.9-.73c-.55 0-1.08.13-1.6.38a3.1 3.1 0 00-1.3 1.24c-.33.57-.5 1.33-.5 2.28V18h-2.67zM80.55 5.25c1.48 0 2.66.33 3.55.97A5.4 5.4 0 0186 8.75l-2.53 1A3.4 3.4 0 0082.42 8a2.67 2.67 0 00-1.85-.63c-1.11 0-1.99.39-2.62 1.16a5 5 0 00-.93 3.25c0 1.4.32 2.47.95 3.22.64.75 1.5 1.13 2.6 1.13.87 0 1.55-.21 2.05-.63.52-.42.86-1.02 1.03-1.8l2.42.83a5.18 5.18 0 01-1.92 2.72c-.94.67-2.11 1-3.53 1a6.74 6.74 0 01-3.27-.77 5.54 5.54 0 01-2.2-2.23 7.24 7.24 0 01-.8-3.5c0-1.35.26-2.5.8-3.47a5.5 5.5 0 012.2-2.25c.93-.52 2-.78 3.2-.78zm19.22.25l-5.48 13.98c-.55 1.45-1.17 2.45-1.87 3.02-.7.58-1.6.88-2.7.88-.62 0-1.18-.08-1.68-.23-.5-.15-.94-.37-1.32-.65l.65-2.07c.6.53 1.32.8 2.17.8.45 0 .85-.12 1.2-.36.37-.23.7-.71.98-1.45l.55-1.35-1.33-3.1-3.9-9.47h3l2.78 7.85.72 2.35.83-2.57 2.62-7.63h2.78z" fill="#373737"/></svg>