<svg width="20" height="20" fill="none" xmlns="http://www.w3.org/2000/svg"><path fill-rule="evenodd" clip-rule="evenodd" d="M10 4a1 1 0 001-1V1a1 1 0 10-2 0v2a1 1 0 001 1zm0 8a2 2 0 110-4 2 2 0 010 4zm0-6a4 4 0 100 8 4 4 0 000-8zm7 3h2a1 1 0 110 2h-2a1 1 0 110-2zM4 10a1 1 0 00-1-1H1a1 1 0 100 2h2a1 1 0 001-1zM2.8 3.05a1 1 0 011.42-.02l1.44 1.39a1 1 0 01-1.39 1.44l-1.44-1.4a1 1 0 01-.02-1.4zm12.24 3.09a1 1 0 00.69-.28l1.44-1.4a1 1 0 00-1.4-1.43l-1.43 1.39a1 1 0 00.7 1.72zM9 17a1 1 0 112 0v2a1 1 0 11-2 0v-2zm6.73-2.86a1 1 0 00-1.39 1.44l1.44 1.4a1 1 0 001.41-.03 1 1 0 00-.02-1.42l-1.44-1.39zm-12.9 1.4l1.44-1.4a1 1 0 011.39 1.44l-1.44 1.4a1 1 0 01-1.41-.03 1 1 0 01.02-1.42z" fill="#fff"/></svg>