<svg width="20" height="20" fill="none" xmlns="http://www.w3.org/2000/svg"><path fill-rule="evenodd" clip-rule="evenodd" d="M10 4a1 1 0 001-1V1a1 1 0 10-2 0v2a1 1 0 001 1zm9 5h-2a1 1 0 100 2h2a1 1 0 100-2zM3 9a1 1 0 110 2H1a1 1 0 110-2h2zm1.22-5.97a1 1 0 00-1.39 1.44l1.44 1.39a1 1 0 001.41-.03 1 1 0 00-.02-1.41l-1.44-1.4zm11.51 2.83a1 1 0 01-1.39-1.44l1.44-1.4a1 1 0 011.39 1.45l-1.44 1.39zM10 16a1 1 0 00-1 1v2a1 1 0 102 0v-2a1 1 0 00-1-1zm4.32-1.83a1 1 0 011.41-.03l1.44 1.4a1 1 0 01-1.4 1.43l-1.43-1.39a1 1 0 01-.02-1.41zm-10.05-.03l-1.44 1.4a1 1 0 001.4 1.43l1.43-1.39a1 1 0 00-1.39-1.44zM6 10a4 4 0 118 0 4 4 0 01-8 0z" fill="#231F20"/></svg>