<?xml version="1.0" encoding="utf-8"?><svg xmlns="http://www.w3.org/2000/svg" xmlns:xlink="http://www.w3.org/1999/xlink"><symbol fill="none" viewBox="0 0 34 34" id="arrow-top" xmlns="http://www.w3.org/2000/svg"><path d="M19.08 17v16.67h-4.16V17H.33L17 .33 33.67 17H19.08z" fill="#fff"/></symbol><symbol fill="none" viewBox="0 0 11 20" id="facebook" xmlns="http://www.w3.org/2000/svg"><path d="M7 11.5h2.5l1-4H7v-2c0-1.03 0-2 2-2h1.5V.14C10.17.1 8.94 0 7.64 0 4.93 0 3 1.66 3 4.7v2.8H0v4h3V20h4v-8.5z" fill="#fff"/></symbol><symbol fill="none" viewBox="0 0 159 38" id="footer-logo" xmlns="http://www.w3.org/2000/svg"><path d="M10.76 3.22c4.03 0 7.16 1.12 9.37 3.36 2.22 2.24 3.32 5.42 3.32 9.53 0 4.11-1.1 7.3-3.32 9.53C17.92 27.88 14.8 29 10.76 29H.8V3.22h9.96zm-.28 21.48c2.45 0 4.29-.73 5.51-2.18 1.25-1.49 1.88-3.62 1.88-6.41s-.63-4.9-1.88-6.37c-1.22-1.48-3.06-2.22-5.5-2.22h-4.3V24.7h4.3zM30.91 6.66c-2.22 0-3.32-.95-3.32-2.85 0-1.93 1.1-2.9 3.32-2.9 2.21 0 3.32.97 3.32 2.9 0 1.9-1.11 2.85-3.32 2.85zm2.65 2.81V29h-5.35V9.47h5.35zm17.28 15.86c2.1 0 3.73.45 4.88 1.37a4.61 4.61 0 011.72 3.82c0 1.51-.43 2.78-1.3 3.8a7.9 7.9 0 01-3.62 2.3c-1.54.52-3.32.78-5.36.78-3.36 0-5.82-.47-7.38-1.4-1.53-.95-2.3-2.17-2.3-3.68 0-.89.27-1.67.82-2.34a4.85 4.85 0 012.73-1.37c-1.74-.65-2.62-1.88-2.62-3.67 0-.89.26-1.67.79-2.35a4.94 4.94 0 012.22-1.52 5.71 5.71 0 01-3.08-5.35c0-2.06.8-3.67 2.38-4.84 1.59-1.2 3.76-1.8 6.52-1.8 1.56 0 2.97.2 4.22.62.18-1.35.73-2.5 1.64-3.43a4.86 4.86 0 013.71-1.45h.43l.63 3.83c-.21-.03-.45-.04-.7-.04-1 0-1.79.2-2.39.59-.6.36-.98.9-1.13 1.6a5.67 5.67 0 012.5 4.92c0 2.03-.8 3.65-2.42 4.84-1.6 1.17-3.75 1.76-6.49 1.76-1.2 0-2.29-.1-3.28-.31-.6.15-1.03.39-1.29.7a1.5 1.5 0 00-.35.98c0 1.1.83 1.64 2.5 1.64h6.02zm-3.6-12.9c-1.04 0-1.9.3-2.58.87a2.95 2.95 0 00-1.01 2.38c0 1.02.34 1.82 1.01 2.42.68.58 1.54.86 2.58.86a3.8 3.8 0 002.54-.86c.68-.6 1.02-1.4 1.02-2.42s-.34-1.8-1.02-2.38a3.8 3.8 0 00-2.54-.86zm-.04 21.3c2 0 3.5-.25 4.46-.75.99-.46 1.48-1.04 1.48-1.71 0-.5-.2-.9-.59-1.22-.39-.28-1.09-.43-2.1-.43h-6.6c-.63 0-1.15.16-1.57.47-.39.34-.58.77-.58 1.3 0 .72.48 1.3 1.44 1.71.99.42 2.34.63 4.06.63zM63.37 6.66c-2.22 0-3.32-.95-3.32-2.85 0-1.93 1.1-2.9 3.32-2.9 2.21 0 3.32.97 3.32 2.9 0 1.9-1.1 2.85-3.32 2.85zm2.65 2.81V29h-5.35V9.47h5.35zm14.74 19.92c-3.08 0-5.54-.88-7.38-2.66-1.85-1.8-2.78-4.3-2.78-7.5 0-2.13.42-3.95 1.25-5.46a8.6 8.6 0 013.48-3.48c1.5-.8 3.23-1.21 5.15-1.21 1.98 0 3.66.4 5.04 1.21a7.9 7.9 0 013.17 3.24 9.65 9.65 0 011.1 4.65 26.85 26.85 0 01-.17 2.73H75.84c.2 1.51.73 2.65 1.56 3.4.86.73 1.96 1.1 3.32 1.1 1.14 0 2.07-.22 2.77-.67a4.5 4.5 0 001.64-1.83l4.26 1.64a7.08 7.08 0 01-3.28 3.6 11.2 11.2 0 01-5.35 1.24zm-.31-16.37c-2.53 0-4.05 1.4-4.57 4.18h8.78a4.92 4.92 0 00-1.32-3.08 3.83 3.83 0 00-2.9-1.1z" fill="#FF5300"/><path d="M94.32 29V9.47h4.8l.2 3.67a6.44 6.44 0 012.61-3.04 7.9 7.9 0 014.02-1.02c2.04 0 3.72.6 5.04 1.8 1.33 1.17 2 2.94 2 5.3V29h-5.35V17.71c0-1.66-.34-2.81-1.02-3.44a3.38 3.38 0 00-2.5-.97c-.73 0-1.45.18-2.15.54a4 4 0 00-1.68 1.68 6.65 6.65 0 00-.62 3.13V29h-5.35zm33.05-19.92c2.6 0 4.62.56 6.05 1.68a7.88 7.88 0 012.89 4.06l-5 1.8c-.52-2.37-1.8-3.56-3.87-3.56a4.2 4.2 0 00-3.47 1.57c-.81 1.04-1.21 2.59-1.21 4.64 0 2.09.41 3.64 1.25 4.65a4.37 4.37 0 003.47 1.49c2.27 0 3.62-1.16 4.06-3.48l4.85 1.56a7.31 7.31 0 01-2.97 4.26c-1.51 1.1-3.48 1.64-5.9 1.64-2.03 0-3.81-.4-5.35-1.21a8.53 8.53 0 01-3.52-3.48 11.17 11.17 0 01-1.25-5.46c0-2.14.42-3.96 1.25-5.47a8.85 8.85 0 013.52-3.48c1.51-.8 3.24-1.21 5.2-1.21zm31.04.39l-7.9 20.74a15.88 15.88 0 01-2.1 4.22 6.42 6.42 0 01-2.66 2.26c-.99.47-2.17.7-3.55.7-1.02 0-1.95-.1-2.81-.34a7.64 7.64 0 01-2.2-.98l1.14-3.87c.91.73 2.06 1.1 3.44 1.1.75 0 1.4-.16 1.91-.47.52-.31.97-.94 1.33-1.88l.67-1.68-2.15-5.07-5.98-14.73h5.94l3.7 11.72 1.02 3.9 1.22-4.14 3.55-11.48h5.43z" fill="#FFF7F4"/></symbol><symbol fill="none" viewBox="0 0 159 38" id="header-logo-dark" xmlns="http://www.w3.org/2000/svg"><path d="M10.758 3.22c4.036 0 7.161 1.12 9.375 3.36 2.213 2.239 3.32 5.416 3.32 9.53 0 4.114-1.107 7.291-3.32 9.53-2.214 2.24-5.339 3.36-9.375 3.36H.798V3.22h9.96zm-.273 21.483c2.448 0 4.283-.729 5.507-2.187 1.25-1.484 1.875-3.62 1.875-6.406 0-2.786-.625-4.908-1.875-6.367-1.224-1.484-3.06-2.226-5.507-2.226H6.188v17.186h4.297zM30.906 6.658c-2.213 0-3.32-.95-3.32-2.852 0-1.927 1.107-2.89 3.32-2.89 2.214 0 3.32.963 3.32 2.89 0 1.901-1.106 2.852-3.32 2.852zm2.656 2.812V29h-5.351V9.47h5.351zm17.274 15.858c2.109 0 3.736.456 4.882 1.367 1.146.912 1.719 2.188 1.719 3.828 0 1.51-.43 2.774-1.29 3.79-.859 1.015-2.07 1.783-3.632 2.304-1.536.52-3.32.78-5.351.78-3.36 0-5.82-.468-7.382-1.405-1.537-.938-2.305-2.162-2.305-3.672 0-.885.274-1.666.82-2.343.573-.651 1.485-1.107 2.735-1.368-1.745-.65-2.617-1.875-2.617-3.671 0-.886.26-1.667.78-2.344.548-.677 1.29-1.185 2.227-1.523-2.057-1.146-3.086-2.93-3.086-5.351 0-2.058.795-3.672 2.383-4.844 1.588-1.198 3.763-1.797 6.523-1.797 1.563 0 2.969.209 4.219.625.182-1.354.729-2.5 1.64-3.437.912-.963 2.148-1.445 3.71-1.445h.431l.625 3.828a5.71 5.71 0 00-.703-.04c-.99 0-1.783.196-2.382.587-.6.364-.977.898-1.133 1.601 1.666 1.172 2.5 2.812 2.5 4.922 0 2.03-.808 3.645-2.422 4.843-1.588 1.172-3.75 1.758-6.484 1.758-1.198 0-2.291-.104-3.281-.313-.599.157-1.029.39-1.289.703a1.5 1.5 0 00-.351.977c0 1.094.833 1.64 2.5 1.64h6.015zm-3.594-12.89c-1.041 0-1.9.287-2.578.86-.677.573-1.015 1.367-1.015 2.383 0 1.015.338 1.822 1.015 2.421.677.573 1.536.86 2.578.86 1.016 0 1.862-.287 2.539-.86.677-.599 1.016-1.406 1.016-2.421 0-1.016-.339-1.81-1.016-2.383s-1.523-.86-2.539-.86zm-.039 21.288c2.005 0 3.49-.247 4.453-.742.99-.469 1.484-1.042 1.484-1.719a1.48 1.48 0 00-.586-1.21c-.39-.287-1.093-.43-2.109-.43h-6.601c-.625 0-1.146.156-1.563.469-.39.338-.585.768-.585 1.289 0 .729.481 1.302 1.445 1.718.99.417 2.343.625 4.062.625zM63.367 6.658c-2.213 0-3.32-.95-3.32-2.852 0-1.927 1.107-2.89 3.32-2.89 2.214 0 3.32.963 3.32 2.89 0 1.901-1.106 2.852-3.32 2.852zm2.656 2.812V29h-5.351V9.47h5.351z" fill="#FF5300"/><path d="M80.758 29.39c-3.073 0-5.534-.885-7.383-2.655-1.849-1.797-2.773-4.297-2.773-7.5 0-2.135.417-3.958 1.25-5.468.833-1.51 1.992-2.67 3.476-3.477 1.51-.807 3.23-1.21 5.156-1.21 1.98 0 3.659.403 5.039 1.21a7.902 7.902 0 013.164 3.242c.729 1.354 1.094 2.904 1.094 4.648 0 .521-.014 1.016-.04 1.485-.025.468-.065.885-.117 1.25H75.836c.209 1.51.73 2.643 1.563 3.398.859.729 1.966 1.094 3.32 1.094 1.145 0 2.07-.222 2.773-.665a4.492 4.492 0 001.64-1.835l4.258 1.64c-.625 1.537-1.719 2.734-3.281 3.594-1.563.833-3.346 1.25-5.351 1.25zm-.313-16.366c-2.526 0-4.049 1.394-4.57 4.18h8.789c-.157-1.354-.6-2.383-1.328-3.086-.703-.729-1.667-1.094-2.89-1.094zM94.315 29V9.47h4.805l.195 3.672c.6-1.354 1.471-2.37 2.617-3.047 1.172-.677 2.513-1.016 4.023-1.016 2.031 0 3.711.6 5.039 1.797 1.328 1.172 1.992 2.943 1.992 5.312V29h-5.351V17.712c0-1.667-.339-2.813-1.016-3.438-.651-.65-1.484-.976-2.499-.976-.73 0-1.446.182-2.149.547-.677.338-1.237.898-1.679 1.68-.417.78-.625 1.822-.625 3.124V29h-5.352zm33.051-19.92c2.604 0 4.622.56 6.054 1.679 1.458 1.12 2.422 2.474 2.89 4.062l-4.999 1.797c-.521-2.37-1.81-3.554-3.867-3.554-1.484 0-2.643.52-3.476 1.562-.808 1.042-1.211 2.59-1.211 4.648 0 2.083.416 3.633 1.25 4.648.859.99 2.018 1.485 3.476 1.485 2.265 0 3.619-1.16 4.062-3.477l4.844 1.563c-.443 1.744-1.433 3.163-2.969 4.257-1.51 1.094-3.476 1.64-5.898 1.64-2.031 0-3.815-.403-5.351-1.21a8.533 8.533 0 01-3.516-3.477c-.833-1.51-1.25-3.333-1.25-5.468s.417-3.958 1.25-5.468c.86-1.51 2.031-2.67 3.516-3.477 1.51-.807 3.242-1.21 5.195-1.21zm31.043.39l-7.89 20.74c-.625 1.772-1.328 3.178-2.109 4.22-.756 1.067-1.641 1.822-2.656 2.265-.99.468-2.175.703-3.555.703-1.015 0-1.953-.117-2.812-.352-.834-.234-1.563-.56-2.188-.976l1.133-3.867c.912.729 2.057 1.094 3.437 1.094.756 0 1.394-.157 1.914-.47.521-.312.964-.937 1.328-1.874l.664-1.68-2.148-5.077-5.976-14.726h5.937l3.711 11.718 1.015 3.906 1.211-4.14L152.98 9.47h5.429z" fill="#fff"/></symbol><symbol fill="none" viewBox="0 0 159 38" id="header-logo-light" xmlns="http://www.w3.org/2000/svg"><path d="M10.758 3.22c4.036 0 7.161 1.12 9.375 3.36 2.213 2.239 3.32 5.416 3.32 9.53 0 4.114-1.107 7.291-3.32 9.53-2.214 2.24-5.339 3.36-9.375 3.36H.798V3.22h9.96zm-.273 21.483c2.448 0 4.283-.729 5.507-2.187 1.25-1.484 1.875-3.62 1.875-6.406 0-2.786-.625-4.908-1.875-6.367-1.224-1.484-3.06-2.226-5.507-2.226H6.188v17.186h4.297zM30.906 6.658c-2.213 0-3.32-.95-3.32-2.852 0-1.927 1.107-2.89 3.32-2.89 2.214 0 3.32.963 3.32 2.89 0 1.901-1.106 2.852-3.32 2.852zm2.656 2.812V29h-5.351V9.47h5.351zm17.274 15.858c2.109 0 3.736.456 4.882 1.367 1.146.912 1.719 2.188 1.719 3.828 0 1.51-.43 2.774-1.29 3.79-.859 1.015-2.07 1.783-3.632 2.304-1.536.52-3.32.78-5.351.78-3.36 0-5.82-.468-7.382-1.405-1.537-.938-2.305-2.162-2.305-3.672 0-.885.274-1.666.82-2.343.573-.651 1.485-1.107 2.735-1.368-1.745-.65-2.617-1.875-2.617-3.671 0-.886.26-1.667.78-2.344.548-.677 1.29-1.185 2.227-1.523-2.057-1.146-3.086-2.93-3.086-5.351 0-2.058.795-3.672 2.383-4.844 1.588-1.198 3.763-1.797 6.523-1.797 1.563 0 2.969.209 4.219.625.182-1.354.729-2.5 1.64-3.437.912-.963 2.148-1.445 3.71-1.445h.431l.625 3.828a5.71 5.71 0 00-.703-.04c-.99 0-1.783.196-2.382.587-.6.364-.977.898-1.133 1.601 1.666 1.172 2.5 2.812 2.5 4.922 0 2.03-.808 3.645-2.422 4.843-1.588 1.172-3.75 1.758-6.484 1.758-1.198 0-2.291-.104-3.281-.313-.599.157-1.029.39-1.289.703a1.5 1.5 0 00-.351.977c0 1.094.833 1.64 2.5 1.64h6.015zm-3.594-12.89c-1.041 0-1.9.287-2.578.86-.677.573-1.015 1.367-1.015 2.383 0 1.015.338 1.822 1.015 2.421.677.573 1.536.86 2.578.86 1.016 0 1.862-.287 2.539-.86.677-.599 1.016-1.406 1.016-2.421 0-1.016-.339-1.81-1.016-2.383s-1.523-.86-2.539-.86zm-.039 21.288c2.005 0 3.49-.247 4.453-.742.99-.469 1.484-1.042 1.484-1.719a1.48 1.48 0 00-.586-1.21c-.39-.287-1.093-.43-2.109-.43h-6.601c-.625 0-1.146.156-1.563.469-.39.338-.585.768-.585 1.289 0 .729.481 1.302 1.445 1.718.99.417 2.343.625 4.062.625zM63.367 6.658c-2.213 0-3.32-.95-3.32-2.852 0-1.927 1.107-2.89 3.32-2.89 2.214 0 3.32.963 3.32 2.89 0 1.901-1.106 2.852-3.32 2.852zm2.656 2.812V29h-5.351V9.47h5.351z" fill="#FF5300"/><path d="M80.758 29.39c-3.073 0-5.534-.885-7.383-2.655-1.849-1.797-2.773-4.297-2.773-7.5 0-2.135.417-3.958 1.25-5.468.833-1.51 1.992-2.67 3.476-3.477 1.51-.807 3.23-1.21 5.156-1.21 1.98 0 3.659.403 5.039 1.21a7.902 7.902 0 013.164 3.242c.729 1.354 1.094 2.904 1.094 4.648 0 .521-.014 1.016-.04 1.485-.025.468-.065.885-.117 1.25H75.836c.209 1.51.73 2.643 1.563 3.398.859.729 1.966 1.094 3.32 1.094 1.145 0 2.07-.222 2.773-.665a4.492 4.492 0 001.64-1.835l4.258 1.64c-.625 1.537-1.719 2.734-3.281 3.594-1.563.833-3.346 1.25-5.351 1.25zm-.313-16.366c-2.526 0-4.049 1.394-4.57 4.18h8.789c-.157-1.354-.6-2.383-1.328-3.086-.703-.729-1.667-1.094-2.89-1.094zM94.315 29V9.47h4.805l.195 3.672c.6-1.354 1.471-2.37 2.617-3.047 1.172-.677 2.513-1.016 4.023-1.016 2.031 0 3.711.6 5.039 1.797 1.328 1.172 1.992 2.943 1.992 5.312V29h-5.351V17.712c0-1.667-.339-2.813-1.016-3.438-.651-.65-1.484-.976-2.499-.976-.73 0-1.446.182-2.149.547-.677.338-1.237.898-1.679 1.68-.417.78-.625 1.822-.625 3.124V29h-5.352zm33.051-19.92c2.604 0 4.622.56 6.054 1.679 1.458 1.12 2.422 2.474 2.89 4.062l-4.999 1.797c-.521-2.37-1.81-3.554-3.867-3.554-1.484 0-2.643.52-3.476 1.562-.808 1.042-1.211 2.59-1.211 4.648 0 2.083.416 3.633 1.25 4.648.859.99 2.018 1.485 3.476 1.485 2.265 0 3.619-1.16 4.062-3.477l4.844 1.563c-.443 1.744-1.433 3.163-2.969 4.257-1.51 1.094-3.476 1.64-5.898 1.64-2.031 0-3.815-.403-5.351-1.21a8.533 8.533 0 01-3.516-3.477c-.833-1.51-1.25-3.333-1.25-5.468s.417-3.958 1.25-5.468c.86-1.51 2.031-2.67 3.516-3.477 1.51-.807 3.242-1.21 5.195-1.21zm31.043.39l-7.89 20.74c-.625 1.772-1.328 3.178-2.109 4.22-.756 1.067-1.641 1.822-2.656 2.265-.99.468-2.175.703-3.555.703-1.015 0-1.953-.117-2.812-.352-.834-.234-1.563-.56-2.188-.976l1.133-3.867c.912.729 2.057 1.094 3.437 1.094.756 0 1.394-.157 1.914-.47.521-.312.964-.937 1.328-1.874l.664-1.68-2.148-5.077-5.976-14.726h5.937l3.711 11.718 1.015 3.906 1.211-4.14L152.98 9.47h5.429z" fill="#373737"/></symbol><symbol fill="none" viewBox="0 0 20 20" id="instagram" xmlns="http://www.w3.org/2000/svg"><path d="M10 0c2.717 0 3.056.01 4.122.06 1.065.05 1.79.217 2.428.465.66.254 1.216.598 1.772 1.153.509.5.902 1.105 1.153 1.772.247.637.415 1.363.465 2.428.047 1.066.06 1.405.06 4.122 0 2.717-.01 3.056-.06 4.122-.05 1.065-.218 1.79-.465 2.428a4.883 4.883 0 01-1.153 1.772c-.5.508-1.105.902-1.772 1.153-.637.247-1.363.415-2.428.465-1.066.047-1.405.06-4.122.06-2.717 0-3.056-.01-4.122-.06-1.065-.05-1.79-.218-2.428-.465a4.89 4.89 0 01-1.772-1.153A4.904 4.904 0 01.525 16.55C.277 15.913.11 15.187.06 14.122.013 13.056 0 12.717 0 10c0-2.717.01-3.056.06-4.122.05-1.066.217-1.79.465-2.428a4.88 4.88 0 011.153-1.772A4.897 4.897 0 013.45.525C4.088.277 4.812.11 5.878.06 6.944.013 7.283 0 10 0zm0 5a5 5 0 100 10 5 5 0 000-10zm6.5-.25a1.25 1.25 0 10-2.5 0 1.25 1.25 0 002.5 0zM10 7a3 3 0 110 6 3 3 0 010-6z" fill="#FF5300"/></symbol><symbol fill="none" viewBox="0 0 100 24" id="logo-mobile" xmlns="http://www.w3.org/2000/svg"><path d="M6.3 1.5c2.58 0 4.59.72 6.02 2.15 1.45 1.42 2.18 3.45 2.18 6.1 0 2.65-.73 4.7-2.18 6.13C10.9 17.29 8.88 18 6.3 18H.47V1.5H6.3zm0 14.22c1.75 0 3.08-.51 4-1.54.93-1.05 1.4-2.53 1.4-4.43s-.47-3.37-1.4-4.4c-.92-1.05-2.25-1.57-4-1.57H3.15v11.95H6.3zM19.34 3.4c-.58 0-1.03-.14-1.35-.42-.3-.3-.45-.72-.45-1.25 0-.54.15-.95.45-1.23.32-.28.77-.43 1.35-.43.57 0 1 .15 1.3.43.32.28.48.7.48 1.23s-.16.94-.48 1.25c-.3.28-.73.42-1.3.42zm1.33 2.1V18h-2.68V5.5h2.68zM31.9 16.05c1.27 0 2.25.28 2.95.85.7.55 1.05 1.32 1.05 2.3 0 .88-.27 1.63-.82 2.25-.55.63-1.3 1.1-2.25 1.43a9.7 9.7 0 01-3.23.5c-2.06 0-3.59-.32-4.57-.95-.97-.64-1.45-1.43-1.45-2.38 0-.57.17-1.07.5-1.53.33-.45.88-.75 1.65-.92-.47-.2-.83-.48-1.1-.83-.27-.36-.4-.83-.4-1.4 0-.54.16-1.03.47-1.44.32-.44.79-.76 1.4-.98a3.73 3.73 0 01-1.97-3.47c0-1.27.5-2.29 1.47-3.06a6.08 6.08 0 013.9-1.17c1.05 0 1.98.17 2.78.5.13-.83.5-1.52 1.1-2.05.6-.55 1.36-.83 2.27-.83h.2l.43 2.1a1.55 1.55 0 00-.3-.02c-1.43 0-2.23.52-2.4 1.58a3.73 3.73 0 011.32 2.94c0 1.29-.49 2.31-1.47 3.08a6.21 6.21 0 01-3.93 1.15c-.68 0-1.3-.06-1.87-.17-.45.11-.78.3-.98.54a1.2 1.2 0 00-.27.75c0 .82.6 1.23 1.77 1.23h3.75zm-2.4-8.93c-.76 0-1.4.22-1.92.66-.5.41-.75.98-.75 1.7 0 .71.25 1.29.75 1.72a2.9 2.9 0 001.92.65c.79 0 1.43-.22 1.93-.65.52-.43.77-1 .77-1.72s-.25-1.29-.77-1.7a2.83 2.83 0 00-1.93-.66zm.1 14.25c1.37 0 2.38-.18 3.03-.55.67-.36 1-.8 1-1.3 0-.38-.16-.69-.48-.92-.3-.23-.85-.35-1.65-.35h-4.02c-.48 0-.88.13-1.2.38-.3.25-.45.57-.45.97 0 .55.33.98 1 1.3.67.32 1.6.48 2.77.48zM39.7 3.4c-.58 0-1.03-.14-1.34-.42-.3-.3-.45-.72-.45-1.25 0-.54.15-.95.45-1.23.31-.28.76-.43 1.35-.43.56 0 1 .15 1.3.43.31.28.47.7.47 1.23s-.16.94-.47 1.25c-.3.28-.74.42-1.3.42zm1.33 2.1V18h-2.67V5.5h2.67z" fill="#FF5300"/><path d="M50.72 18.25a6.8 6.8 0 01-3.3-.77 5.54 5.54 0 01-2.2-2.23 7.24 7.24 0 01-.8-3.5c0-1.35.25-2.5.77-3.47a5.55 5.55 0 012.18-2.25c.93-.52 2-.78 3.2-.78 1.21 0 2.25.25 3.1.75a5 5 0 011.95 2.05c.45.87.67 1.85.67 2.95a14.07 14.07 0 01-.1 1.55h-9.15c.12 1.17.5 2.06 1.13 2.67.65.6 1.48.9 2.5.9.83 0 1.5-.15 2.02-.47.52-.32.93-.76 1.23-1.33l2.12 1a4.7 4.7 0 01-2.07 2.16 6.6 6.6 0 01-3.25.77zm-.2-10.88a3.3 3.3 0 00-2.28.8c-.58.54-.96 1.31-1.12 2.33h6.57c-.07-1-.38-1.77-.95-2.3a3.06 3.06 0 00-2.22-.82zM59.67 18V5.5h2.37l.13 2.15a4 4 0 011.72-1.83 5.41 5.41 0 012.5-.57c.89 0 1.68.17 2.38.53.72.33 1.28.84 1.7 1.54.42.69.62 1.55.62 2.58V18h-2.67v-7.28c0-1.23-.26-2.08-.78-2.54a2.62 2.62 0 00-1.9-.73c-.55 0-1.08.13-1.6.38a3.1 3.1 0 00-1.3 1.24c-.33.57-.5 1.33-.5 2.28V18h-2.67zM80.55 5.25c1.48 0 2.66.33 3.55.97A5.4 5.4 0 0186 8.75l-2.53 1A3.4 3.4 0 0082.42 8a2.67 2.67 0 00-1.85-.63c-1.11 0-1.99.39-2.62 1.16a5 5 0 00-.93 3.25c0 1.4.32 2.47.95 3.22.64.75 1.5 1.13 2.6 1.13.87 0 1.55-.21 2.05-.63.52-.42.86-1.02 1.03-1.8l2.42.83a5.18 5.18 0 01-1.92 2.72c-.94.67-2.11 1-3.53 1a6.74 6.74 0 01-3.27-.77 5.54 5.54 0 01-2.2-2.23 7.24 7.24 0 01-.8-3.5c0-1.35.26-2.5.8-3.47a5.5 5.5 0 012.2-2.25c.93-.52 2-.78 3.2-.78zm19.22.25l-5.48 13.98c-.55 1.45-1.17 2.45-1.87 3.02-.7.58-1.6.88-2.7.88-.62 0-1.18-.08-1.68-.23-.5-.15-.94-.37-1.32-.65l.65-2.07c.6.53 1.32.8 2.17.8.45 0 .85-.12 1.2-.36.37-.23.7-.71.98-1.45l.55-1.35-1.33-3.1-3.9-9.47h3l2.78 7.85.72 2.35.83-2.57 2.62-7.63h2.78z" fill="#373737"/></symbol><symbol fill="none" viewBox="0 0 21 21" id="newsletter" xmlns="http://www.w3.org/2000/svg"><path d="M.95 7.31c-.53-.17-.53-.45 0-.63L20.06.32c.52-.18.83.12.68.64l-5.46 19.08c-.15.53-.45.55-.68.05L11 12l6-8-8 6L.95 7.31z" fill="#fff"/></symbol><symbol fill="none" viewBox="0 0 20 20" id="skype" xmlns="http://www.w3.org/2000/svg"><path d="M11.31 18.4A8.5 8.5 0 011.6 8.69 5.25 5.25 0 018.69 1.6a8.5 8.5 0 019.71 9.71 5.25 5.25 0 01-7.09 7.09zm-1.258-3.244h-.04c2.872 0 4.303-1.386 4.303-3.243 0-1.198-.551-2.471-2.726-2.958l-1.983-.44c-.755-.172-1.622-.4-1.622-1.115s.62-1.213 1.724-1.213c2.23 0 2.027 1.528 3.131 1.528.576 0 1.093-.342 1.093-.93 0-1.37-2.197-2.4-4.056-2.4-2.021 0-4.173.859-4.173 3.144 0 1.098.394 2.27 2.56 2.813l2.689.671c.816.202 1.018.659 1.018 1.072 0 .687-.684 1.358-1.918 1.358-2.417 0-2.078-1.857-3.374-1.857-.58 0-1.003.398-1.003.971 0 1.114 1.352 2.598 4.377 2.598v.001z" fill="#FF5300"/></symbol><symbol fill="none" viewBox="0 0 20 20" id="sun-dark" xmlns="http://www.w3.org/2000/svg"><path fill-rule="evenodd" clip-rule="evenodd" d="M10 4a1 1 0 001-1V1a1 1 0 10-2 0v2a1 1 0 001 1zm0 8a2 2 0 110-4 2 2 0 010 4zm0-6a4 4 0 100 8 4 4 0 000-8zm7 3h2a1 1 0 110 2h-2a1 1 0 110-2zM4 10a1 1 0 00-1-1H1a1 1 0 100 2h2a1 1 0 001-1zM2.8 3.05a1 1 0 011.42-.02l1.44 1.39a1 1 0 01-1.39 1.44l-1.44-1.4a1 1 0 01-.02-1.4zm12.24 3.09a1 1 0 00.69-.28l1.44-1.4a1 1 0 00-1.4-1.43l-1.43 1.39a1 1 0 00.7 1.72zM9 17a1 1 0 112 0v2a1 1 0 11-2 0v-2zm6.73-2.86a1 1 0 00-1.39 1.44l1.44 1.4a1 1 0 001.41-.03 1 1 0 00-.02-1.42l-1.44-1.39zm-12.9 1.4l1.44-1.4a1 1 0 011.39 1.44l-1.44 1.4a1 1 0 01-1.41-.03 1 1 0 01.02-1.42z" fill="#fff"/></symbol><symbol fill="none" viewBox="0 0 20 20" id="sun-light" xmlns="http://www.w3.org/2000/svg"><path fill-rule="evenodd" clip-rule="evenodd" d="M10 4a1 1 0 001-1V1a1 1 0 10-2 0v2a1 1 0 001 1zm9 5h-2a1 1 0 100 2h2a1 1 0 100-2zM3 9a1 1 0 110 2H1a1 1 0 110-2h2zm1.22-5.97a1 1 0 00-1.39 1.44l1.44 1.39a1 1 0 001.41-.03 1 1 0 00-.02-1.41l-1.44-1.4zm11.51 2.83a1 1 0 01-1.39-1.44l1.44-1.4a1 1 0 011.39 1.45l-1.44 1.39zM10 16a1 1 0 00-1 1v2a1 1 0 102 0v-2a1 1 0 00-1-1zm4.32-1.83a1 1 0 011.41-.03l1.44 1.4a1 1 0 01-1.4 1.43l-1.43-1.39a1 1 0 01-.02-1.41zm-10.05-.03l-1.44 1.4a1 1 0 001.4 1.43l1.43-1.39a1 1 0 00-1.39-1.44zM6 10a4 4 0 118 0 4 4 0 01-8 0z" fill="#231F20"/></symbol><symbol fill="none" viewBox="0 0 22 18" id="twitter" xmlns="http://www.w3.org/2000/svg"><path d="M21.162 2.656a8.383 8.383 0 01-2.402.658A4.196 4.196 0 0020.6 1c-.82.488-1.719.83-2.656 1.015a4.182 4.182 0 00-7.126 3.814 11.874 11.874 0 01-8.62-4.37 4.168 4.168 0 00-.566 2.103c0 1.45.738 2.731 1.86 3.481a4.168 4.168 0 01-1.894-.523v.052a4.185 4.185 0 003.355 4.101 4.21 4.21 0 01-1.89.072A4.185 4.185 0 006.97 13.65a8.395 8.395 0 01-6.191 1.732 11.83 11.83 0 006.41 1.88c7.693 0 11.9-6.373 11.9-11.9 0-.18-.005-.362-.013-.54a8.495 8.495 0 002.087-2.165l-.001-.001z" fill="#FF5300"/></symbol></svg>